# xmcd CD database file
#
# Track frame offsets:
#	183
#	13420
#	28195
#	42370
#	56545
#	70533
#	85120
#	98808
#	110695
#	123333
#	137733
#	150595
#	164058
#	176170
#	190345
#	200695
#	212995
#	225783
#	241195
#	252933
#
# Disc length: 3562 seconds
#
# Revision: 2
# Processed by: cddbd v1.4PL0 Copyright (c) Steve Scherf et al.
# Submitted via: CDex 1.40Beta9
#
DISCID=190de814
DTITLE=Muddy Waters - Down South Blues
DYEAR=1900
DGENRE=Blues
TTITLE0=Down South Blues
TTITLE1=Baby Please Don't Go
TTITLE2=Rollin' Stone
TTITLE3=Smokestack Lightnin'
TTITLE4=Screamin' And Cryin'
TTITLE5=Too Young To Know
TTITLE6=Sad Letter Blues
TTITLE7=Kind Hearted Woman
TTITLE8=Train Fare Home
TTITLE9=Blow Wind Blow
TTITLE10=Louisiana Blues
TTITLE11=Rollin' And Tumblin'
TTITLE12=Long Distance Call
TTITLE13=Early Morning Blues
TTITLE14=Mean Red Spider
TTITLE15=I Can't Be Satisfied
TTITLE16=Appealing Blues (Hello Little Girl)
TTITLE17=Honey Bee
TTITLE18=Sittin' Here And Drinkin' (Whiskey Blues)
TTITLE19=I Feel Like Going Home
EXTD=ID3G: 0
EXTT0=
EXTT1=
EXTT2=
EXTT3=
EXTT4=
EXTT5=
EXTT6=
EXTT7=
EXTT8=
EXTT9=
EXTT10=
EXTT11=
EXTT12=
EXTT13=
EXTT14=
EXTT15=
EXTT16=
EXTT17=
EXTT18=
EXTT19=
PLAYORDER=
